<svg width="40" height="40" viewBox="0 0 40 40" fill="none" xmlns="http://www.w3.org/2000/svg">
<circle cx="20" cy="20" r="20" fill="#D72130"/>
<path d="M28.1915 14.8831H25.1317L23.3004 13.0337C23.3004 13.0337 23.2914 13.0246 23.2868 13.0246L23.2778 13.0155C23.0058 12.7435 22.6386 12.5713 22.2216 12.5713H18.4139C17.9696 12.5713 17.5753 12.7617 17.2988 13.0654V13.0699L15.5082 14.8831H12.3805C11.5374 14.8831 10.8574 15.5449 10.8574 16.388V25.5492C10.8574 26.3923 11.5374 27.0768 12.3805 27.0768H28.1915C29.0301 27.0768 29.7146 26.3923 29.7146 25.5492V16.388C29.7146 15.5449 29.0301 14.8831 28.1915 14.8831ZM20.286 24.7876C17.9787 24.7876 16.0975 22.9019 16.0975 20.5901C16.0975 18.2738 17.9787 16.3926 20.286 16.3926C22.5978 16.3926 24.4745 18.2738 24.4745 20.5901C24.4745 22.9019 22.5978 24.7876 20.286 24.7876ZM27.9059 17.3082C27.5569 17.3082 27.2713 17.0227 27.2713 16.6691C27.2713 16.3155 27.5569 16.0299 27.9059 16.0299C28.2549 16.0299 28.5405 16.3155 28.5405 16.6691C28.5405 17.0227 28.2549 17.3082 27.9059 17.3082Z" fill="white"/>
<path d="M20.2851 17.417C18.5354 17.417 17.1211 18.8358 17.1211 20.5901C17.1211 22.3398 18.5354 23.7631 20.2851 23.7631C22.0303 23.7631 23.4491 22.3443 23.4491 20.5901C23.4491 18.8358 22.0303 17.417 20.2851 17.417Z" fill="white"/>
</svg>
